<svg id="Capa_1" data-name="Capa 1" xmlns="http://www.w3.org/2000/svg" viewBox="0 0 350 385"><defs><style>.cls-1{fill:none;stroke:#000;stroke-linecap:round;stroke-miterlimit:10;stroke-width:9px;}</style></defs><title>IsotipoFinal</title><path class="cls-1" d="M248.5,29S317.45,82.83,136,187.33C70.67,225,40.73,255,28.56,278.81a29.44,29.44,0,0,0-3,18.05C27.31,307.71,36,320.7,69.46,314.05a.94.94,0,0,0,.28-1.75c-7-3.93-25.24-15.23-10.41-34.3,16.34-21,40.57-41.54,98.17-74.5C344.2,96.67,281.3,43.17,288,50"/><path class="cls-1" d="M59.67,152.5s12.38,24.5,31.88,44"/><path class="cls-1" d="M171.55,293s6.91,6.7,10.25,12.84c0,0,6.86,8.3-4.09,12.11C166.17,322,143.87,328.07,132,343"/><path class="cls-1" d="M60.5,86.5s7.42,58.2,49.5,97"/><path class="cls-1" d="M194.22,247.34s17.5,33.5,31.5,26.5"/><path class="cls-1" d="M214.22,236c.8,1.85,13.26,23.58,21.5,14.67"/><path class="cls-1" d="M130,171.5S67.5,101,84,50.5"/><path class="cls-1" d="M149.5,159s-77-87.5-21-131.5"/><path class="cls-1" d="M313,82s6.34,6.49-2.67,26c-28,60.67-108.33,97.5-156.83,124C75,274.89,81,299,81,299"/><path class="cls-1" d="M317.33,144.33s-.33,38-119.66,85.67c0,0-26.34,12.33-33.67,21.33L214.5,311s6,8,.5,11.5S163.5,333,138.5,354c-14.43,12.12-6.71,16.75,2.41,18.49"/></svg>